<svg xmlns="http://www.w3.org/2000/svg" width="50.711" height="37.365" viewBox="0 0 50.711 37.365"><g transform="translate(-417.772 -506.775)"><path d="M447.543,529.815l2.084.567A16.6,16.6,0,0,0,451.643,532c.26.039,2.19.425,2.383.5s2.26.656,2.26.656.441.2.441.312-.441,3.263-.441,3.263a8.284,8.284,0,0,0-1.373.115c-.193.091-3.164.182-3.492.31s-1.88.688-2.242.833-2.176-.032-2.408.075a2.633,2.633,0,0,1-1.466-.075,10.045,10.045,0,0,1-1.458-1.515c-.356-.617-.9-1.289-.9-1.686a4.132,4.132,0,0,1,0-2.288c.386-1.389.733-2.238,1.852-2.508A11.682,11.682,0,0,1,447.543,529.815Z" fill="#e60321"/><path d="M465.587,538.069H463.97l1.488-18.844h1.722v-6.442H449.249l-3-6.008-1.841.92,2.543,5.088h-1.556v6.442h1.723l.766,9.708a5.211,5.211,0,0,0-.765-.064h-.007a5,5,0,0,0-4.362,2.6v-1.387c0-4.181-3.034-7.583-6.763-7.583H428.1c-3.73,0-6.763,3.4-6.763,7.583v1.4a2.775,2.775,0,0,0-.718,1.879v.819a2.772,2.772,0,0,0,.718,1.879v.988a3.283,3.283,0,0,0,.171,1.019h-.838a2.9,2.9,0,0,0-2.9,2.9v.28a2.9,2.9,0,0,0,2.9,2.9h44.919a2.9,2.9,0,0,0,2.9-2.9v-.28A2.9,2.9,0,0,0,465.587,538.069Zm-22.84-1.019v-.323a4.953,4.953,0,0,0,.47.7,5.374,5.374,0,0,0,.63.641h-1.271A3.283,3.283,0,0,0,442.747,537.05ZM452,524.022a4.819,4.819,0,0,0-2.547-1.288l-.277-3.509h14.214l-1.017,12.891a2.192,2.192,0,0,0-.709-.194,2.111,2.111,0,0,0-1.566.491,2.152,2.152,0,0,0-.7,1.06l-1.9-.176.013-.134a.85.85,0,0,0-.771-.923,11.991,11.991,0,0,1-4.693-1.315,4.814,4.814,0,0,0,1.424-3.412A4.9,4.9,0,0,0,452,524.022Zm8.123,11.277-2.719-.251,0-.052,2.717.248a.781.781,0,0,0,.293-.022.876.876,0,0,0,.116-.039.862.862,0,0,0-.021.125.792.792,0,0,0,0,.129A.849.849,0,0,0,460.126,535.3Zm.894-1.179v-.083a.472.472,0,0,1,.168-.317.477.477,0,0,1,.3-.109l.039,0a.47.47,0,0,1,.316.168.464.464,0,0,1-.4.759.826.826,0,0,0-.417.068A1.008,1.008,0,0,0,461.02,534.12Zm.265,2.113a.465.465,0,0,1,.254.821.445.445,0,0,1-.338.1h0a.463.463,0,0,1-.42-.5l.02-.11a.894.894,0,0,0,.1-.32.772.772,0,0,0,0-.127A.845.845,0,0,0,461.285,536.233Zm-4.108.635.012-.132,1.9.174a2.146,2.146,0,0,0,.428,1.084h-7.873a11.965,11.965,0,0,1,4.609-.358A.849.849,0,0,0,457.177,536.868Zm-9.727-22.027h17.673v2.326H447.45Zm2.177,10.055a2.748,2.748,0,0,1,.941.6,2.83,2.83,0,0,1,.853,2.016,2.8,2.8,0,0,1-1.227,2.3c-.062-.039-.125-.077-.188-.113Zm-5.473,7.516a3.386,3.386,0,0,1,2.957-1.845h0a4.308,4.308,0,0,1,2.436.836,13.6,13.6,0,0,0,6.2,2.44l-.188,2.034a13.61,13.61,0,0,0-6.539,1.265,4.3,4.3,0,0,1-2.551.375,3.27,3.27,0,0,1-1.945-1.175,3.334,3.334,0,0,1-.626-1.18,3.7,3.7,0,0,1,.255-2.75Zm-20.762-2.325c0-3.046,2.111-5.525,4.706-5.525h7.886c2.594,0,4.7,2.479,4.7,5.525v.609h-17.3Zm-.717,3.277c0-.349.214-.61.4-.61H441c.19,0,.4.261.4.61v.819c0,.349-.214.61-.4.61H423.08c-.191,0-.4-.261-.4-.61Zm.717,3.686v-.2h17.3v.2c0,.552-.35,1.019-.763,1.019H424.155C423.742,538.069,423.392,537.6,423.392,537.05Zm43.033,4.2a.838.838,0,0,1-.838.837H420.668a.838.838,0,0,1-.838-.837v-.28a.839.839,0,0,1,.838-.838h44.919a.839.839,0,0,1,.838.838Z"/></g></svg>