<svg xmlns="http://www.w3.org/2000/svg" width="47.574" height="30.929" viewBox="0 0 47.574 30.929"><path d="M279.656,347.906l3.563,4.334s-2.574,4.385-2.787,5.7-1.713,5.123-2.088,5.186-5.266,1.657-5.266,1.657l-1.578-1.654L268.317,360s-1.411-4.219-1.223-4.781.289-2.063,1.223-2.25a45.234,45.234,0,0,0,5.9-2.438C274.594,350.25,279.656,347.906,279.656,347.906Z" transform="translate(-249.291 -334.576)" fill="#e60321"/><path d="M293.791,342.7a2.384,2.384,0,0,0-3.367,0l-1.683-1.683a2.374,2.374,0,1,0-3.367,0,2.432,2.432,0,0,0,.31.262l.064.047a2.093,2.093,0,0,0,.28.157,1.184,1.184,0,0,1,.566,1.579,1.146,1.146,0,0,1-.233.333l-4.959,4.964,1.683,1.681,4.962-4.96a1.189,1.189,0,0,1,1.935.376,2.564,2.564,0,0,0,.181.3l.021.029a2.349,2.349,0,0,0,.24.278,2.381,2.381,0,0,0,3.367-3.367Zm-13.359,3.265-.033-.053c-1.467-2.317-4.28-3.848-7.594-4.365a17.263,17.263,0,0,0-6.041.162,18.027,18.027,0,0,0-6.075,2.435c-4.284,2.708-7.836,7.512-8.982,14.871a3.53,3.53,0,0,0,.081,1.522,3.6,3.6,0,0,0,.749,1.343,3.507,3.507,0,0,0,2.755,1.248H268.44l-.064-.062a8.306,8.306,0,0,1-2.437-5.887c0-5.32,4.472-6.788,9-8.271a34.971,34.971,0,0,0,4.068-1.519l1.424-1.424ZM273.986,365.5H255.292a5.91,5.91,0,0,1-5.926-6.85c1.267-8.128,5.246-13.473,10.061-16.514a20.427,20.427,0,0,1,6.873-2.751,19.686,19.686,0,0,1,6.869-.181,13.294,13.294,0,0,1,8.973,5.05L283.7,342.7a4.748,4.748,0,0,1-.023-6.7l.021-.023a4.755,4.755,0,0,1,8.122,3.361l-.01.3.3-.009a4.758,4.758,0,1,1-3.364,8.124l-4.689,4.688a33.729,33.729,0,0,0-1.516,4.066c-1.484,4.529-2.951,9-8.274,9l-.279-.005Zm-3.927-4.119a5.925,5.925,0,0,0,4.206,1.743c3.6,0,4.8-3.656,6.015-7.358.421-1.284.844-2.577,1.378-3.787l-2.194-2.194c-1.212.535-2.506.958-3.789,1.378-3.7,1.215-7.358,2.414-7.358,6.015a5.927,5.927,0,0,0,1.742,4.2Z" transform="translate(-249.291 -334.576)"/></svg>