<svg xmlns="http://www.w3.org/2000/svg" width="30.401" height="37.559" viewBox="0 0 30.401 37.559"><g transform="translate(-39.928 -488.015)"><path d="M42.063,492.25l9.75-1.187L51,495.678l-6.364,1.259Z" fill="#e60321"/><path d="M57.116,518.592l1.308,6.115,11.905-5.664-3.917-4.872-9.534-20.043-1.309-6.113-4.609,2.193-11.032,1.213,2.1,5.888,2.427,22.062-.77,6.2,13.1-1.441-2.1-5.889-.68-6.185ZM46.822,518l-2.186-19.865,3.081-.339,2.18-.24.816,7.415,1.37,12.45Zm8.272-21.8,8.585,18.047L58.9,516.521l-5.725-12.034-.771-7.008Zm5.113,24.89-.47-2.2,5.253-2.5,1.409,1.753Zm-5.949-27.26-1.811.861.319-2.574,1.021-.485Zm-4.1-1.02-.277,2.232-2.441.269-3.341.367-.756-2.118Zm-3.6,29.934.277-2.232,5.782-.636.756,2.118Z"/></g></svg>