<svg xmlns="http://www.w3.org/2000/svg" width="27.14" height="36.02" viewBox="0 0 27.14 36.02"><g transform="translate(-249.954 -301.128)"><path d="M258.375,323.625h1.312l2.063-1.406s1.673-.469,1.774-.469,2.522.938,2.522.938l.86.937,2.2.281a18.067,18.067,0,0,1,0,2.766,11.01,11.01,0,0,1-1.394.891s-1.606-.657-1.981,0-.234,1.171-.562,1.218-2.285,0-2.285,0l-1.465-.8a18.5,18.5,0,0,0-1.735-1.171c-.14,0-1.944.093-1.862-.047S258.375,323.625,258.375,323.625Z" fill="#e60321"/><path d="M267.2,322.439a4.692,4.692,0,0,0-7.341,0H258.2a1.14,1.14,0,0,0-1.137,1.14v3.552a1.139,1.139,0,0,0,1.137,1.139h1.658a4.689,4.689,0,0,0,7.341,0h1.657a1.14,1.14,0,0,0,1.138-1.139v-3.552a1.141,1.141,0,0,0-1.138-1.14Zm.52,2.278v1.276H266.6a1.12,1.12,0,0,0-1.009.614,2.452,2.452,0,0,1-.858.845,2.5,2.5,0,0,1-2.417,0,2.437,2.437,0,0,1-.886-.889,1.146,1.146,0,0,0-.982-.57h-1.113v-1.276h1.113a1.139,1.139,0,0,0,1.011-.616,2.419,2.419,0,0,1,.857-.843,2.5,2.5,0,0,1,2.416,0,2.427,2.427,0,0,1,.887.89,1.15,1.15,0,0,0,.981.569Z"/><path d="M276.023,311.788h-2.481V307.6a1.14,1.14,0,0,0-1.138-1.139H269.99v-4.189a1.141,1.141,0,0,0-1.138-1.14H265.3a1.141,1.141,0,0,0-1.139,1.14v5.965h-1.275v-4.19a1.142,1.142,0,0,0-1.139-1.14H258.2a1.14,1.14,0,0,0-1.137,1.14v2.412h-2.414a1.14,1.14,0,0,0-1.138,1.14v4.19h-2.416a1.143,1.143,0,0,0-1.137,1.159l1.78,23.151a1.14,1.14,0,0,0,1.133,1.053h21.314a1.13,1.13,0,0,0,1.136-1.089l1.774-23.05A1.144,1.144,0,0,0,276.023,311.788Zm-16.688,2.738V305.18h1.275v9.8A9.347,9.347,0,0,1,259.335,314.526Zm7.1.333V303.4h1.277v10.933c-.107.054-.215.1-.325.155A9.074,9.074,0,0,1,266.438,314.859Zm4.829-3.074h-.077a1.122,1.122,0,0,0-.952.515c-.078.1-.161.206-.248.307v-3.874h1.277Zm3.462,2.277-1.6,20.811H253.921l-1.6-20.811h2.6a9.455,9.455,0,0,0,2.688,2.145l.1.056c.2.105.407.207.618.3a11.865,11.865,0,0,0,3.227.926l.081.011a12.914,12.914,0,0,0,3.821-.066l.083-.016a11.755,11.755,0,0,0,2.788-.855,11.217,11.217,0,0,0,1.059-.551c.037-.021.074-.041.094-.056a9.349,9.349,0,0,0,2.254-1.9Zm-16.9,1.979Zm5.062-.711v-4.821h1.275v4.8A10.566,10.566,0,0,1,262.887,315.33Zm-5.828-2.3a6.127,6.127,0,0,1-.686-.778,1.137,1.137,0,0,0-.591-.414v-3.1h1.277Z"/></g></svg>