<svg xmlns="http://www.w3.org/2000/svg" width="32.626" height="29.048" viewBox="0 0 32.626 29.048"><g transform="translate(-291.208 -443.973)"><path d="M294.562,458.5h26.772s1.26.316,1.26.784.375,1.373,0,1.859a6.691,6.691,0,0,1-1.26,1.071l1.072,3.188-.094.539-1.593,1.136H294.562s-1.312-.2-1.5-.668a15.027,15.027,0,0,1-.562-2.574c0-.332,1.208-1.621,1.208-1.621l-.833-1.071-.375-1.671Z" fill="#e60321"/><path d="M323.075,462.644a2.926,2.926,0,0,0,.758-1.955v-.348a2.946,2.946,0,0,0-2.116-2.816,15.35,15.35,0,0,0-4.368-9.416h0a13.74,13.74,0,0,0-19.652,0,15.346,15.346,0,0,0-4.369,9.414,2.947,2.947,0,0,0-2.12,2.818v.348a2.9,2.9,0,0,1,0,3.912v.347a2.946,2.946,0,0,0,2.134,2.822c.017.148.023.3.043.446.058.424.135.852.231,1.28a4.611,4.611,0,0,0,1.506,2.523,4.21,4.21,0,0,0,2.741,1H317.18a4.266,4.266,0,0,0,2.74-1,4.611,4.611,0,0,0,1.508-2.524c.094-.427.172-.855.23-1.279.02-.148.027-.3.044-.446a2.948,2.948,0,0,0,2.132-2.822V464.6A2.925,2.925,0,0,0,323.075,462.644Zm-1.742-2.3v.348a.457.457,0,0,1-.451.451H294.158a.456.456,0,0,1-.45-.451v-.348a.457.457,0,0,1,.45-.451h26.724A.458.458,0,0,1,321.333,460.341Zm-25.309-3.4a12.754,12.754,0,0,1,3.526-6.981,11.132,11.132,0,0,1,15.945,0,12.751,12.751,0,0,1,3.526,6.981Zm-1.864,7.211h26.723a.458.458,0,0,1,.451.452v.347a.458.458,0,0,1-.451.451H294.16a.458.458,0,0,1-.451-.451V464.6A.458.458,0,0,1,294.16,464.149Zm24.079,5.864a1.626,1.626,0,0,1-1.059.386H297.864a1.628,1.628,0,0,1-1.06-.386,1.974,1.974,0,0,1-.636-1.083c-.055-.25-.105-.508-.146-.77h23c-.042.264-.09.521-.145.769A1.98,1.98,0,0,1,318.239,470.013Z"/></g></svg>