<svg xmlns="http://www.w3.org/2000/svg" width="35.235" height="33.5" viewBox="0 0 35.235 33.5"><g transform="translate(-155.3 -430.129)"><path d="M161.719,442.031v9.61h-2.3a32.657,32.657,0,0,1-2.438-2.578c0-.188-.515-3.282-.468-3.516a10.377,10.377,0,0,1,1.687-2.36C158.437,443.156,161.719,442.031,161.719,442.031Z" fill="#e60321"/><path d="M184.641,442.031c.14-.187,3.657,1.156,3.657,1.156s.608,1.61.843,1.985a4.278,4.278,0,0,1,.234,1.969c-.094.234-.888,2.109-1.077,2.437s-2.064,2.344-2.064,2.344h-1.922Z" fill="#e60321"/><path d="M188.654,442.559a6.463,6.463,0,0,0-3.378-1.665,11.556,11.556,0,0,0-3.612-7.329,12.853,12.853,0,0,0-17.495,0,11.556,11.556,0,0,0-3.612,7.329,6.394,6.394,0,0,0-3.378,1.663,5.848,5.848,0,0,0,0,8.59,6.441,6.441,0,0,0,4.449,1.753h.082a1.037,1.037,0,0,0,1.037-1.037v-9.938a9.22,9.22,0,0,1,2.953-6.741,10.649,10.649,0,0,1,14.433,0,9.22,9.22,0,0,1,2.953,6.741v9.908a9.012,9.012,0,0,1-.8,3.725,9.505,9.505,0,0,1-1.875,2.736,2.851,2.851,0,1,0,1.358,1.8,11.757,11.757,0,0,0,2.553-3.621,11.284,11.284,0,0,0,.958-3.662,6.474,6.474,0,0,0,3.375-1.666,5.844,5.844,0,0,0,0-8.588Zm-.356,4.3a3.659,3.659,0,0,1-1.173,2.675,4.132,4.132,0,0,1-1.8.992v-7.334a4.084,4.084,0,0,1,1.8.994A3.653,3.653,0,0,1,188.3,446.854Zm-29.588,2.675a3.638,3.638,0,0,1,0-5.351,4.1,4.1,0,0,1,1.8-.991v7.334A4.132,4.132,0,0,1,158.71,449.529Zm20.9,11.245a.618.618,0,0,1-.182.438.634.634,0,0,1-.874,0,.618.618,0,1,1,.874-.874h0A.618.618,0,0,1,179.615,460.774Z"/></g></svg>