<svg xmlns="http://www.w3.org/2000/svg" width="16.096" height="15.321" viewBox="0 0 16.096 15.321"><g transform="translate(0.15 0.15)"><path d="M65.577,395.117a2.076,2.076,0,0,0-3.477.945H60.684a2.071,2.071,0,1,0,0,1.045H62.1a2.075,2.075,0,1,0,3.476-1.99Zm-6.174,2.2a1.058,1.058,0,0,1-1.459,0,1.032,1.032,0,1,1,1.459,0Zm5.436,0a1.058,1.058,0,0,1-1.459,0,1.031,1.031,0,1,1,1.459,0Z" transform="translate(-52.717 -383.638)" stroke="#000" stroke-width="0.3"/><path d="M63.711,372.364a.686.686,0,0,0-.134-.313.71.71,0,0,0-.258-.211.733.733,0,0,0-.317-.072H50.987l-.1-.392a1.448,1.448,0,0,0-.606-.855,1.837,1.837,0,0,0-1.023-.307h-.851a.487.487,0,0,0-.486.486v.072a.486.486,0,0,0,.486.486h.851a.776.776,0,0,1,.434.124.428.428,0,0,1,.183.243l1.928,7.79a1.445,1.445,0,0,0,.606.855,1.83,1.83,0,0,0,1.023.307h6.52a1.77,1.77,0,0,0,1-.3,1.555,1.555,0,0,0,.621-.829l2.112-6.758A.719.719,0,0,0,63.711,372.364Zm-3.132,6.771a.522.522,0,0,1-.209.277.742.742,0,0,1-.415.12h-6.52a.779.779,0,0,1-.435-.124.424.424,0,0,1-.182-.243l-1.573-6.353h11.31Z" transform="translate(-47.923 -370.214)" stroke="#000" stroke-width="0.3"/></g></svg>