<svg xmlns="http://www.w3.org/2000/svg" width="38.855" height="26.678" viewBox="0 0 38.855 26.678"><path d="M366.028,416.313l17.785-13.5H348.929Z" transform="translate(-346.6 -401.428)" fill="#e60321"/><path d="M346.75,427.037V402.5a.921.921,0,0,1,.92-.92q18.357.009,36.715,0a.921.921,0,0,1,.92.92v24.539a.921.921,0,0,1-.92.919H347.67a.921.921,0,0,1-.92-.919Zm35.091-1.11-11.334-11.334-3.914,3.045a.912.912,0,0,1-1.129,0l-3.916-3.045-11.334,11.334Zm-9.72-12.59,11.155,11.155V404.661l-11.155,8.676Zm-23.342,11.155,11.155-11.155-11.155-8.676v19.831Zm1.936-20.893,15.313,11.91L381.34,403.6l-15.312,0-15.313,0Z" transform="translate(-346.6 -401.428)"/><path d="M384.385,428.106H347.67a1.071,1.071,0,0,1-1.07-1.07V402.5a1.07,1.07,0,0,1,1.068-1.07h0q18.354.009,36.714,0h0a1.07,1.07,0,0,1,1.068,1.07v24.538A1.071,1.071,0,0,1,384.385,428.106Zm-36.716-26.377a.768.768,0,0,0-.769.769v24.538a.771.771,0,0,0,.77.77h36.715a.77.77,0,0,0,.77-.77V402.5a.768.768,0,0,0-.768-.769h0q-18.357.008-36.715,0ZM382.2,426.077H349.852l11.684-11.683,4.02,3.126a.763.763,0,0,0,.944,0l4.02-3.126.093.092Zm-31.628-.3h30.9l-10.984-10.983-3.81,2.963a1.051,1.051,0,0,1-1.313,0l-3.812-2.964Zm32.85-.922L371.9,413.323l.133-.1,11.4-8.865Zm-11.078-11.5,10.778,10.779V404.968Zm-23.719,11.5v-20.5l11.531,8.969Zm.3-19.886V424.13l10.779-10.779Zm17.1,10.731-.092-.072-15.658-12.179h31.5Zm-14.875-11.95,14.875,11.569L380.9,403.749l-14.874,0Z" transform="translate(-346.6 -401.428)"/></svg>