<svg xmlns="http://www.w3.org/2000/svg" width="35.584" height="37.431" viewBox="0 0 35.584 37.431"><g transform="translate(0.25 0.25)"><path d="M301.062,377.5h32.313s.312,5.625.312,6.313a44.964,44.964,0,0,1-.971,4.393l-1.654.482s-2.375-2.438-3.125-1.688a6.539,6.539,0,0,1-2,1.206,19.051,19.051,0,0,1-2.812-.629h-1.688l-.379,1.629-1.683-1-2.355-.768-1.583.768-3.312-.331s-1.073-.375-1.568-.062a4.458,4.458,0,0,1-1.557.393,9.4,9.4,0,0,0-2.75-.768,6.112,6.112,0,0,0-2,.768s-.888.669-1.257.482-2.493-1.25-2.493-1.25Z" transform="translate(-299.478 -376.521)" fill="#e60321"/><path d="M327.175,393.976v11.252a.838.838,0,0,1-.836.837H307.7a.839.839,0,0,1-.837-.837V393.976a.839.839,0,0,1,.837-.837h18.637a.838.838,0,0,1,.836.837Zm7.387-16.619v8.22a3.667,3.667,0,0,1-1.846,3.368v22.66h1.009a.839.839,0,0,1,.837.837v.173a.839.839,0,0,1-.837.837h-33.41a.839.839,0,0,1-.837-.837v-.173a.839.839,0,0,1,.837-.837h1.01v-22.66a3.668,3.668,0,0,1-1.847-3.368v-8.22a.838.838,0,0,1,.837-.836h33.41a.838.838,0,0,1,.837.836Zm-3.693,12.066h-.048l-.118,0h-.047l-.048,0h-.048l-.062-.007h-.009l-.024,0h0l-.023,0h-.011l-.013,0-.02,0h0l-.047-.006-.017,0-.134-.022-.014,0-.019,0-.1-.02h0l-.024,0-.01,0-.013,0-.117-.028h0l-.066-.018h0a3.972,3.972,0,0,1-.455-.161,3.577,3.577,0,0,1-1.276-.912l-.066.071-.017.018h0l-.017.017-.018.018-.01.011-.008.007-.018.018-.017.018,0,0-.016.015-.018.017-.013.013-.006.005-.055.05-.018.017-.016.014,0,0-.019.017-.019.015-.007.007-.012.009-.019.016-.039.031-.019.016-.011.009-.008.006-.02.016-.04.029-.02.015-.02.014-.02.015-.02.014-.005,0-.016.01-.02.014-.016.011,0,0-.021.013-.021.014-.007.005-.013.009-.021.013-.019.012h0l-.021.013-.021.012-.01.007-.011.006-.021.012-.022.013h0l-.02.011-.022.012-.013.007-.008.005-.021.012-.022.012,0,0-.018.009-.022.011-.016.008-.006,0-.022.011-.022.011-.007,0-.015.007-.022.01-.019.01h0l-.022.01-.023.01-.01,0-.012.006-.023.009-.022.01-.023.01-.022.009h0l-.022.009-.023.009-.022.009-.022.009h0l-.022.008h0l-.022.008-.023.009h0l-.022.008h0l-.022.008h0l-.022.008h0l-.022.008h0l-.023.007h0l-.023.007h0l-.023.008h0l-.023.006h0l-.023.008h0l-.023.006h0l-.023.007h0l-.022.007h0l-.022.006h0l-.022.006h0l-.023.006h0l-.023.006h0l-.022.005h0l-.023.006h0l-.023,0h0l-.022.006h0l-.023.005h0l-.023.005h0l-.023,0h0l-.023.005h0l-.023,0h0l-.023,0h0l-.023.005h0l-.023,0h0l-.023,0h0l-.023,0h0l-.023,0h0l-.023,0h0l-.023,0h0l-.023,0h0l-.023,0h0l-.023,0h0l-.023,0h0l-.023,0h0l-.023,0h0l-.023,0h0l-.024,0h0l-.023,0h-.024l-.024,0h0l-.023,0H325.5l-.024,0h-.285l-.024,0h-.071l-.024,0h0l-.024,0h-.024l-.023,0h0l-.024,0h0l-.023,0h0l-.023,0h0l-.023,0h0l-.023,0h0l-.023,0h0l-.023,0h0l-.023,0h0l-.023,0h0l-.023,0h0l-.023,0h0l-.023,0h0l-.023,0h0l-.023,0h0l-.023-.005h0l-.023,0h0l-.023,0h0l-.023-.005h0l-.023,0h0l-.023-.005h0l-.023-.005h0l-.023-.006h0l-.023,0h0l-.023-.006h0l-.023-.005h0l-.023-.006h0l-.023-.006h0l-.022-.006h0l-.022-.006h0l-.023-.007h0l-.023-.007h0l-.023-.006h0l-.023-.008h0l-.023-.006h0l-.023-.008h0l-.023-.007h0l-.023-.007h0l-.023-.008-.023-.008-.022-.008h0l-.022-.008-.023-.009-.023-.008h0l-.022-.008-.023-.009-.023-.009-.022-.009-.022-.009-.022-.009-.023-.01-.022-.01-.023-.009-.012-.006-.01,0-.022-.011-.022-.009,0,0-.019-.009-.022-.01-.016-.008-.006,0-.022-.011-.022-.011-.006,0-.016-.007-.021-.011-.019-.01,0,0-.022-.011-.021-.012-.009-.006-.012-.006-.022-.012-.021-.012-.021-.012-.022-.013-.012-.007-.009-.006-.021-.012-.02-.013,0,0-.017-.011-.021-.013-.015-.01-.006,0-.02-.013-.021-.014-.006,0-.052-.036,0,0-.02-.014-.02-.014-.009-.007-.011-.007-.02-.015-.02-.015h0l-.039-.029-.011-.01-.123-.1-.019-.016-.006-.005a3.183,3.183,0,0,1-.314-.311l-.018.018-.064.071,0,0-.017.018-.018.018-.006.007-.012.011-.017.017-.036.035-.018.018-.037.034-.018.016,0,0-.017.015-.018.016-.019.016-.019.017-.019.016-.018.016-.02.016c-.064.051-.13.1-.2.149l-.02.014,0,0-.018.012-.021.013-.014.01-.006,0-.02.014h0l-.039.026-.021.013-.017.011,0,0-.021.013-.021.012-.009.006-.012.007-.021.013-.021.012h0l-.021.012-.021.012-.012.006-.01.006-.021.012-.022.011,0,0-.018.009-.022.012-.016.007-.006,0-.022.011-.022.011-.006,0-.016.008-.022.01-.019.009,0,0-.022.009-.023.011-.009,0-.013.006-.022.009-.023.01-.022.01-.022.009h0l-.022.009-.022.009-.023.009-.022.009h0l-.022.008h0l-.023.008-.022.009h0l-.022.008h0l-.023.008h0l-.023.008h0l-.022.008h0l-.022.007h0l-.022.007h0l-.022.008h0l-.022.006h0l-.022.008h0l-.022.006h0l-.022.007h0l-.023.007h0l-.023.006h0l-.023.006h0l-.022.006h0l-.022.006h0l-.023.005h0l-.023.006h0l-.022,0h0l-.023.006h0l-.022.005h0l-.023.005h0l-.023,0h0l-.023.005h0l-.023,0h0l-.023,0h0l-.023.005h0l-.023,0h0l-.023,0h0l-.023,0h0l-.023,0h0l-.022,0h0l-.024,0h0l-.023,0h0l-.023,0h0l-.023,0h0l-.023,0h0l-.023,0h0l-.023,0h0l-.023,0h0l-.023,0h0l-.023,0h-.024l-.024,0h0l-.023,0h-.072l-.023,0h-.286l-.023,0h-.072l-.023,0h0l-.023,0h-.024l-.023,0h0l-.023,0h0l-.023,0h0l-.024,0h0l-.023,0h0l-.023,0h0l-.023,0h0l-.023,0h0l-.023,0h0l-.023,0h0l-.023,0h0l-.023,0h0l-.023,0h0l-.023,0h0l-.023,0h0l-.023-.005h0l-.023,0h0l-.022,0h0l-.023-.005h0l-.023,0h0l-.023-.005h0l-.023-.005h0l-.023-.006h0l-.022,0h0l-.023-.006h0l-.023-.005h0l-.022-.006h0l-.023-.006h0l-.023-.006h0l-.023-.006h0l-.023-.007h0l-.022-.007h0l-.022-.006h0l-.022-.008h0l-.023-.006h0l-.022-.008h0l-.023-.007h0l-.023-.007h0l-.023-.008-.023-.008-.022-.008h0l-.022-.008-.023-.009-.022-.008h0l-.022-.008-.023-.009-.022-.009-.023-.009-.022-.009-.022-.009-.022-.01-.023-.01-.023-.009-.012-.006-.009,0-.023-.011-.022-.009,0,0-.018-.009-.022-.01-.016-.008-.006,0-.022-.011-.022-.011-.007,0-.015-.007-.022-.011-.019-.01,0,0-.021-.011-.022-.012-.009-.006-.012-.006-.021-.012-.022-.012-.021-.012-.021-.013-.012-.007-.009-.006-.021-.012-.021-.013,0,0-.018-.011-.021-.013-.015-.01-.005,0-.021-.013-.021-.014-.005,0-.053-.036,0,0-.021-.014-.02-.014-.009-.007-.01-.007-.02-.015-.02-.015h0l-.039-.029-.012-.01-.123-.1-.019-.016-.006-.005a3.293,3.293,0,0,1-.314-.311l-.017.018-.065.071,0,0-.017.018-.018.018-.006.007-.011.011-.018.017-.036.035-.018.018-.036.034-.019.016v0l-.017.015-.019.016-.019.016-.018.017-.019.016-.019.016-.019.016c-.064.051-.13.1-.2.149l-.02.014,0,0-.018.012-.02.013-.014.01-.007,0-.02.014h0l-.039.026-.021.013-.018.011,0,0-.021.013-.021.012-.008.006-.013.007-.021.013-.021.012h0l-.021.012-.022.012-.012.006-.009.006-.022.012-.022.011,0,0-.019.009-.022.012-.015.007-.006,0-.022.011-.022.011-.007,0-.015.008-.022.01-.019.009,0,0-.022.009-.022.011-.01,0-.012.006-.023.009-.022.01-.023.01-.022.009h0l-.022.009-.023.009-.022.009-.023.009h0l-.022.008h0l-.022.008-.023.009h0l-.022.008h0l-.022.008h0l-.022.008h0l-.022.008h0l-.023.007h0l-.023.007h0l-.023.008h0l-.023.006h0l-.023.008h0l-.023.006h0l-.023.007h0l-.022.007h0l-.022.006h0l-.022.006h0l-.023.006h0l-.023.006h0l-.022.005h0l-.023.006h0l-.022,0h0l-.023.006h0l-.022.005h0l-.023.005h0l-.023,0h0l-.023.005h0l-.023,0h0l-.023,0h0l-.023.005h0l-.023,0h0l-.023,0h0l-.023,0h0l-.023,0h0l-.022,0h0l-.023,0h0l-.023,0h0l-.023,0h0l-.023,0h0l-.023,0h0l-.023,0h0l-.023,0h0l-.023,0h0l-.024,0h0l-.023,0h-.025l-.023,0h0l-.023,0h-.071l-.024,0h-.285l-.024,0h-.072l-.023,0h0l-.024,0h-.024l-.023,0h0l-.024,0h0l-.023,0h0l-.023,0h0l-.023,0h0l-.023,0h0l-.024,0h0l-.023,0h0l-.023,0h0l-.023,0h0l-.023,0h0l-.023,0h0l-.023,0h0l-.023,0h0l-.023,0h0l-.023-.005h0l-.023,0h0l-.023,0h0l-.023-.005h0l-.023,0h0l-.023-.005h0l-.023-.005h0l-.023-.006h0l-.023,0h0l-.023-.006h0l-.023-.005h0l-.023-.006h0l-.023-.006h0l-.022-.006h0l-.022-.006h0l-.023-.007h0l-.022-.007h0l-.022-.006h0l-.022-.008h0l-.022-.006h0l-.022-.008h0l-.022-.007h0l-.022-.007h0l-.022-.008-.023-.008-.023-.008h0l-.023-.008-.022-.009-.023-.008h0l-.023-.008-.022-.009-.023-.009-.022-.009-.023-.009-.022-.009-.022-.01-.023-.01-.022-.009-.013-.006-.009,0-.023-.011-.022-.009,0,0-.019-.009-.022-.01-.016-.008-.006,0-.022-.011-.022-.011-.006,0-.016-.007-.021-.011-.019-.01,0,0-.022-.011-.021-.012-.01-.006-.012-.006-.021-.012-.021-.012-.021-.012-.022-.013-.012-.007-.009-.006-.021-.012-.021-.013,0,0-.018-.011-.021-.013-.014-.01-.006,0-.02-.013-.021-.014-.006,0-.052-.036,0,0-.02-.014-.02-.014-.009-.007-.011-.007-.02-.015-.02-.015h0l-.039-.029-.012-.01-.123-.1-.018-.016-.006-.005a3.18,3.18,0,0,1-.314-.311l-.018.018-.065.071,0,0-.018.018-.017.018-.007.007-.011.011-.017.017-.036.035-.018.018-.037.034-.018.016,0,0-.017.015-.018.016-.019.016-.019.017-.019.016-.019.016-.019.016c-.064.051-.13.1-.2.149l-.021.014,0,0-.017.012-.021.013-.014.01-.006,0-.021.014h0l-.039.026-.021.013-.017.011,0,0-.021.013-.021.012-.009.006-.013.007-.02.013-.021.012h0l-.021.012-.021.012-.012.006-.01.006-.021.012-.022.011,0,0-.019.009-.022.012-.015.007-.006,0-.022.011-.022.011-.006,0-.016.008-.022.01-.019.009,0,0-.022.009-.023.011-.009,0-.013.006-.022.009-.023.01-.022.01-.022.009h0l-.022.009-.022.009-.023.009-.022.009h0l-.022.008h0l-.023.008L310,389.2h0l-.022.008h0l-.023.008h0l-.023.008h0l-.022.008h0l-.022.007h0l-.022.007h0l-.022.008h0l-.022.006h0l-.022.008h0l-.022.006h0l-.022.007h0l-.023.007h0l-.023.006h0l-.023.006h0l-.022.006h0l-.023.006h0l-.022.005h0l-.023.006h0l-.023,0h0l-.022.006h0l-.023.005h0l-.023.005h0l-.023,0h0l-.023.005h0l-.023,0h0l-.023,0h0l-.023.005h0l-.023,0h0l-.023,0h0l-.024,0h0l-.023,0h0l-.023,0h0l-.023,0h0l-.023,0h0l-.023,0h0l-.023,0h0l-.023,0h0l-.023,0h0l-.023,0h0l-.023,0h0l-.024,0h0l-.023,0H309l-.024,0h0l-.023,0h-.072l-.023,0h-.286l-.024,0h-.071l-.023,0h0l-.023,0H308.4l-.023,0h0l-.023,0h0l-.023,0h0l-.023,0h0l-.023,0h0l-.023,0h0l-.023,0h0l-.023,0h0l-.023,0h0l-.023,0h0l-.023,0h0l-.023,0h0l-.023,0h0l-.024,0h0l-.023,0h0l-.023-.005h0l-.023,0h0l-.023,0h0l-.023-.005h0l-.023,0h0l-.023-.005h0l-.023-.005h0l-.023-.006h0l-.022,0h0l-.023-.006h0l-.023-.005h0l-.022-.006h0l-.023-.006h0l-.022-.006h0l-.022-.006h0l-.023-.007h0l-.023-.007h0l-.023-.006h0l-.023-.008h0l-.023-.006h0l-.023-.008h0l-.023-.007h0l-.023-.007h0l-.023-.008-.023-.008-.022-.008h0l-.022-.008-.023-.009-.022-.008h0l-.022-.008-.023-.009-.022-.009-.023-.009-.022-.009-.022-.009-.023-.01-.022-.009-.023-.01-.012-.006-.01,0-.022-.011-.022-.009,0,0-.019-.009-.022-.01-.015-.008-.007,0-.021-.011-.022-.011-.007,0-.015-.007-.022-.011-.019-.01,0,0-.021-.011-.031-.018-.012-.006-.022-.012-.021-.012h0l-.021-.012-.021-.013-.012-.007-.009-.006-.021-.012-.021-.013,0,0-.018-.011-.021-.013-.015-.01-.005,0-.021-.013-.021-.014-.006,0-.052-.036,0,0-.02-.014-.02-.014-.009-.007-.011-.007-.02-.015-.019-.015h0l-.04-.029-.011-.01-.1-.08,0,0-.019-.016-.019-.016-.006-.005-.013-.012-.082-.075-.01-.008-.018-.018-.064-.063-.007-.007-.018-.018-.017-.018,0,0-.014-.014-.017-.019-.034-.037-.017-.019a3.586,3.586,0,0,1-1.276.912,3.923,3.923,0,0,1-.522.179h0l-.13.031-.01,0-.023,0h0l-.1.02-.018,0c-.071.013-.141.024-.212.033h0l-.02,0-.013,0H303.6l-.023,0h0l-.025,0h-.008l-.063.007h-.047l-.048,0h-.047l-.119,0h-.047V411.6h27.7V389.423Zm-1.84-3.641a1.861,1.861,0,0,0,.892,1.554l.01.006,0,0,.016.009.007,0,.008.005.015.007,0,0,.011.005.015.008h0l.014.006.013.007h0l.016.007.01.005.005,0,.016.007.007,0,.009,0h0l.012.005h0l.009,0,.007,0,0,0,.012,0h0l.011,0h.005l.007,0,.035.012.006,0,0,0,.012,0h0l.016.005.007,0,.009,0h0l.011,0h0l.092.025.008,0,.028.007h.006l.006,0,.011,0h0l.012,0h0l.033.007h0l.1.016h.024l.013,0,.037,0h0l.035,0h.038l.025,0h.216l.03,0h.132l.01,0h.05l.01,0h.029l.01,0h0l.01,0h0l.008,0h.019l.045-.01h0l.008,0h0l.035-.009h0l.008,0h0l.01,0h0l.008,0,.01,0,.006,0h0l.021-.006.007,0,0,0h.005l.007,0h0l.018-.006h0a1.336,1.336,0,0,0,.149-.056,1.872,1.872,0,0,0,1.074-1.846v-7.21h-3.693v7.389h0v.026Zm-1.853-.205v-7.21h-3.693v7.345l0,.044h0l0,.043,0,.043,0,.042.005.042.006.041h0l.006.04h0l.007.04.008.04.007.039h0l.009.038h0l.009.038.01.037.011.037h0l.01.036.012.037.012.035h0l.012.035.013.034.014.034h0l.014.033.015.033.015.032h0l.015.031.016.031.017.031h0l.017.03.017.029h0l.018.029.018.028.019.028h0l.019.027.02.026h0l.02.026.02.026.021.025.021.025.022.025.022.024.022.023h0l.023.023.023.022h0l.023.022.024.021.024.02.024.021.025.019.025.02.025.018.026.018.025.017h0l.027.017.026.016.026.016.027.016.027.014.027.015.028.014.028.013.028.013.028.012.011.005.011.005.011,0h0l.011,0,.011,0,.012,0,.011,0h0l.011,0h0l.011,0h0l.011,0h0l.011,0h0l.012,0,.011,0h0l.012,0h0l.011,0h0l.011,0,.012,0h0l.011,0,.012,0h0l.012,0h0l.012,0h0l.012,0h0l.011,0h0l.011,0h0l.011,0h0l.011,0h0l.012,0,.012,0h0l.011,0h0l.011,0h0l.012,0,.012,0h0l.012,0,.012,0h0l.012,0h0l.012,0h0l.012,0h0l.012,0h.013l.012,0h0l.012,0h.012l.013,0,.012,0h.013l.012,0h.451l.012,0h.013l.012,0h0l.012,0h.013l.012,0h0l.012,0h.013l.012,0,.012,0h0l.012,0,.012,0h0l.011,0h0l.012,0,.012,0,.012,0h0l.011,0h0l.011,0h0l.011,0h0l.011,0h0l.011,0h0l.011,0h0l.011,0h0l.011,0,.012,0,.012,0h0l.012,0h0l.012,0,.011,0h0l.011,0,.012,0h0l.011,0h0l.012,0,.011,0,.012,0h0l.011,0h0l.011,0h0l.011,0h0l.011,0h0l.011,0,.012,0,.011,0,.011,0h0l.011,0,.011-.005.011-.005.028-.012.028-.013.028-.013.028-.014.027-.015.027-.014.027-.016.026-.016.026-.016.027-.017h0l.025-.017.026-.018.025-.018.025-.02.025-.019.024-.021.024-.02.024-.021.023-.022h0l.023-.022.023-.023h0l.022-.023.022-.024.022-.025.021-.025.021-.025.02-.026.02-.026h0l.02-.026.019-.027h0l.018-.028.019-.028.018-.029h0l.017-.029.017-.03h0l.017-.031.016-.031.015-.031h0l.015-.032.015-.033.014-.033h0l.014-.034.013-.034.012-.035h0l.012-.035.012-.037.01-.036h0l.011-.037.01-.037.009-.038h0l.009-.038h0l.007-.039.008-.04.007-.04h0l.006-.04h0l.006-.041.005-.042,0-.042,0-.043,0-.043h0l0-.044v-.135Zm-5.54,0v-7.21h-3.693v7.3l0,.044,0,.044h0l0,.043,0,.043.005.042.005.042.006.041h0l.006.04h0l.007.04.007.04.008.039h0l.009.038h0l.009.038.01.037.01.037h0l.01.036.012.037.012.035h0l.013.035.013.034.013.034h0l.014.033.015.033.015.032h0l.015.031.017.031.016.031h0l.017.03.017.029h0l.019.029.018.028.018.028h0l.02.027.019.026h0l.02.026.021.026.021.025.021.025.021.025.022.024.023.023h0l.022.023.023.022h0l.024.022.023.021.024.02.025.021.024.019.025.02.026.018.025.018.026.017h0l.026.017.026.016.027.016.026.016.028.014.027.015.028.014.027.013.028.013.028.012.011.005.012.005.011,0h0l.011,0,.012,0,.011,0,.011,0h0l.011,0h0l.011,0h0l.011,0h0l.011,0h0l.011,0,.012,0h0l.011,0h0l.011,0h0l.012,0,.011,0h0l.011,0,.012,0h0l.011,0h0l.011,0h0l.012,0h0l.012,0h0l.012,0h0l.012,0h0l.012,0h0l.012,0,.012,0h0l.012,0h0l.012,0h0l.012,0,.012,0h0l.012,0,.012,0h0l.012,0h0l.012,0h0l.013,0h0l.012,0h.012l.012,0h0l.013,0h.012l.012,0,.013,0h.012l.012,0h.451l.012,0h.013l.012,0h0l.012,0h.012l.012,0h0l.012,0h.012l.012,0,.012,0h0l.012,0,.012,0h0l.012,0h0l.012,0,.012,0,.013,0h0l.012,0h0l.012,0h0l.012,0h0l.012,0h0l.012,0h0l.012,0h0l.012,0h0l.012,0,.012,0,.011,0h0l.011,0h0l.011,0,.012,0h0l.012,0,.011,0h0l.011,0h0l.012,0,.011,0,.012,0h0l.011,0h0l.011,0h0l.011,0h0l.011,0h0l.01,0,.012,0,.012,0,.011,0h0l.011,0,.012-.005.011-.005.028-.012.028-.013.027-.013.028-.014.027-.015.027-.014.027-.016.027-.016.026-.016.026-.017h0l.026-.017.025-.018.025-.018.026-.02.024-.019.025-.021.024-.02.023-.021.024-.022h0l.023-.022.022-.023h0l.023-.023.022-.024.021-.025.021-.025.021-.025.021-.026.019-.026h0l.02-.026.02-.027h0l.018-.028.019-.028.018-.029h0l.017-.029.017-.03h0l.016-.031.017-.031.015-.031h0l.015-.032.014-.033.015-.033h0l.013-.034.013-.034.013-.035h0l.012-.035.011-.037.011-.036h0l.01-.037.01-.037.009-.038h0l.009-.038h0l.008-.039.007-.04.007-.04h0l.006-.04h0l.006-.041.005-.042,0-.042,0-.043,0-.043h0l0-.044,0-.044v-.091Zm-5.539,0v-7.21H312.4v7.3l0,.044,0,.044h0l0,.043,0,.043,0,.042,0,.042.006.041h0l.006.04h0l.007.04.007.04.008.039h0l.009.038h0l.009.038.01.037.01.037h0l.011.036.011.037.012.035h0l.013.035.013.034.014.034h0l.014.033.014.033.016.032h0l.015.031.016.031.017.031h0l.016.03.018.029h0l.018.029.018.028.019.028h0l.019.027.02.026h0l.02.026.02.026.021.025.021.025.021.025.022.024.023.023h0l.022.023.023.022h0l.024.022.024.021.024.02.024.021.025.019.025.02.025.018.026.018.025.017h0l.026.017.027.016.026.016.027.016.027.014.027.015.028.014.028.013.027.013.029.012.011.005.011.005.011,0h0l.011,0,.011,0,.012,0,.011,0h0l.011,0h0l.011,0h0l.011,0h0l.011,0h0l.012,0,.011,0h0l.012,0h0l.011,0h0l.011,0,.012,0h0l.012,0,.011,0h0l.011,0h0l.011,0h0l.012,0h0l.012,0h0l.011,0h0l.011,0h0l.011,0h0l.012,0,.012,0h0l.011,0h0l.011,0h0l.012,0,.012,0h0l.012,0,.012,0h0l.012,0h0l.012,0h0l.013,0h0l.012,0h.013l.012,0h0l.012,0h.012l.013,0,.012,0h.012l.013,0h.451l.012,0h.012l.012,0h0l.012,0h.013l.012,0h0l.012,0h.013l.012,0,.012,0h0l.012,0,.012,0h0l.011,0h0l.012,0,.012,0,.012,0h0l.012,0h0l.011,0h0l.011,0h0l.011,0h0l.011,0h0l.011,0h0l.011,0h0l.011,0,.012,0,.012,0h0l.012,0h0l.012,0,.011,0h0l.011,0,.012,0h0l.011,0h0l.011,0,.012,0,.011,0h0l.011,0h0l.011,0h0l.011,0h0l.011,0h0l.011,0,.011,0,.012,0,.011,0h0l.011,0,.012-.005.011-.005.028-.012.028-.013.028-.013.027-.014.028-.015.027-.014.026-.016.027-.016.026-.016.026-.017h0l.026-.017.026-.018.025-.018.025-.02.025-.019.024-.021.024-.02.024-.021.023-.022h0l.023-.022.023-.023h0l.022-.023.022-.024.022-.025.021-.025.02-.025.021-.026.02-.026h0l.02-.026.019-.027h0l.018-.028.019-.028.018-.029h0l.017-.029.017-.03h0l.017-.031.016-.031.015-.031h0l.015-.032.015-.033.014-.033h0l.014-.034.013-.034.012-.035h0l.012-.035.012-.037.01-.036h0l.011-.037.01-.037.009-.038h0l.008-.038h0l.008-.039.008-.04.006-.04h0l.007-.04h0l.005-.041.006-.042,0-.042,0-.043,0-.043h0l0-.044v-.135Zm-5.54,0v-7.21h-3.693v7.345l0,.044h0l0,.043,0,.043,0,.042.006.042.005.041h0l.007.04h0l.007.04.007.04.008.039h0l.009.038h0l.008.038.01.037.011.037h0l.01.036.012.037.012.035h0l.012.035.014.034.013.034h0l.014.033.015.033.015.032h0l.015.031.016.031.017.031h0l.017.03.017.029h0l.018.029.019.028.018.028h0l.019.027.02.026h0l.02.026.021.026.021.025.02.025.022.025.022.024.022.023h0l.023.023.023.022h0l.023.022.024.021.024.02.025.021.024.019.025.02.025.018.026.018.026.017h0l.026.017.026.016.027.016.026.016.028.014.027.015.027.014.028.013.028.013.028.012.011.005.012.005.011,0h0l.011,0,.012,0,.011,0,.011,0h0l.011,0h0l.011,0h0l.011,0h0l.011,0h0l.011,0,.012,0h0l.011,0h0l.011,0h0l.012,0,.011,0h0l.011,0,.012,0h0l.012,0h0l.012,0h0l.012,0h0l.011,0h0l.011,0h0l.011,0h0l.011,0h0l.013,0,.012,0h0l.012,0h0l.012,0h0l.012,0,.012,0h0l.012,0,.012,0h0l.012,0h0l.012,0h0l.012,0h0l.012,0h.013l.012,0h0l.013,0h.012l.012,0,.013,0h.012l.012,0h.451l.012,0h.013l.012,0h0l.012,0H309l.012,0h0l.013,0h.012l.012,0,.012,0h0l.012,0,.012,0h0l.012,0h0l.012,0,.012,0,.012,0h0l.011,0h0l.011,0h0l.011,0h0l.011,0h0l.012,0h0l.012,0h0l.012,0h0l.012,0,.012,0,.011,0h0l.011,0h0l.011,0,.012,0h0l.012,0,.011,0h0l.011,0h0l.012,0,.011,0,.012,0h0l.011,0h0l.011,0h0l.011,0h0l.011,0h0l.011,0,.012,0,.011,0,.011,0h0l.011,0,.011-.005.011-.005.029-.012.027-.013.028-.013.028-.014.027-.015.027-.014.027-.016.027-.016.026-.016.026-.017h0l.026-.017.025-.018.025-.018.025-.02.025-.019.025-.021.024-.02.023-.021.024-.022h0l.023-.022.022-.023h0l.023-.023.022-.024.021-.025.021-.025.021-.025.02-.026.02-.026h0l.02-.026.019-.027h0l.019-.028.019-.028.017-.029h0l.018-.029.016-.03h0l.017-.031.016-.031.015-.031h0l.016-.032.014-.033.014-.033h0l.014-.034.013-.034.013-.035h0l.012-.035.011-.037.011-.036h0l.01-.037.01-.037.009-.038h0l.009-.038h0l.008-.039.007-.04.007-.04h0l.006-.04h0l.006-.041,0-.042,0-.042,0-.043,0-.043h0l0-.044,0-.044v-.091Zm-9.232-7.21v7.21a1.871,1.871,0,0,0,1.074,1.846,1.552,1.552,0,0,0,.148.056h0l.018.006h0l.011,0,0,0,.055.016h0l.01,0h0l.009,0h0l.035.009h0l.008,0h0l.045.01h.019l.009,0h0l.01,0h0l.009,0h.029l.01,0h.051l.009,0h.132l.031,0h.215l.025,0h.05l.024,0h0l.034,0h0l.013,0h.024c.062-.009.123-.02.183-.034h0l.012,0,0,0,.007,0,.01,0h0l.011,0h0l.009,0,.008,0h0l.012,0h0l.011,0h.005l.007,0,.01,0h0l.012,0h0l.009,0,.008,0h0l.012,0h0l.011,0,.006,0,0,0,.011,0h0l.011,0h0l.008,0,.009,0h0l.011,0h0l.01,0,.007,0h0l.011,0h0l.011-.005h0l.007,0a1.825,1.825,0,0,0,1.068-1.663v0l0-.023v-7.366Zm12.925,16.619v9.232h11.079v-9.232Zm-1.846,9.232v-9.232h-3.693v9.232Z" transform="translate(-299.478 -376.521)" stroke="#000" stroke-miterlimit="10" stroke-width="0.5"/></g></svg>