<svg xmlns="http://www.w3.org/2000/svg" width="31.831" height="33.187" viewBox="0 0 31.831 33.187"><g transform="translate(-163.355 -372.094)"><path d="M170.619,391.781c-.088-.093,4.131.094,4.506,0s4.146,7.747,4.146,7.747l4.2-7.774,5.531.785s3,1.961,3,2.242,1.687,4.747,1.687,4.747v4.816H165.375l-1.313-.75v-4.066l2.344-4.934Z" fill="#e60321"/><path d="M192.843,393.741c-1.8-2.369-4.778-3.473-9.36-3.473h-.008a1.2,1.2,0,0,0-1.089.7l-3.115,6.748-3.083-6.675a1.209,1.209,0,0,0-1.122-.773c-4.528,0-7.5,1.156-9.365,3.637-1.622,2.164-2.346,5.3-2.346,10.178a1.2,1.2,0,0,0,1.2,1.2h29.429a1.2,1.2,0,0,0,1.2-1.2C195.186,399.057,194.463,395.869,192.843,393.741Zm-18.536-1.06,3.424,7.419a1.7,1.7,0,0,0,.644.724,1.734,1.734,0,0,0,1.8,0l.1-.066a1.648,1.648,0,0,0,.542-.655l3.424-7.417c6,.222,8.321,3,8.533,10.2H165.773c.1-3.6.685-6,1.843-7.54C168.892,393.637,171.019,392.792,174.307,392.681Z"/><path d="M178.567,389.4h1.407a7.959,7.959,0,0,0,7.949-7.949v-1.407a7.959,7.959,0,0,0-7.949-7.95h-1.407a7.959,7.959,0,0,0-7.948,7.95v1.407A7.959,7.959,0,0,0,178.567,389.4Zm-5.65-7.949v-1.407a5.656,5.656,0,0,1,5.65-5.65h1.407a5.656,5.656,0,0,1,5.65,5.65v1.407a5.656,5.656,0,0,1-5.65,5.649h-1.407A5.656,5.656,0,0,1,172.917,381.451Z"/></g></svg>